<svg width="40" height="40" viewBox="0 0 40 40" fill="none" xmlns="http://www.w3.org/2000/svg">
<path fill-rule="evenodd" clip-rule="evenodd" d="M30.7312 38C32.5376 38 34 36.5498 34 34.7583V10.2322H27.4194C26.9462 10.2322 26.6022 9.84834 26.6022 9.4218V2H9.22581C7.46237 2 6 3.40758 6 5.19905V34.8009C6 36.5498 7.41935 38 9.22581 38H30.7312ZM28.2365 3.27935V8.6111H33.0107L28.2365 3.27935Z" fill="#EF6060"/>
<path fill-rule="evenodd" clip-rule="evenodd" d="M11.2375 27.3398V24.1662H12.8782C13.9553 24.1662 14.7985 23.9115 15.4077 23.4022C16.017 22.8928 16.3216 22.1968 16.3216 21.3142C16.3216 20.7327 16.1823 20.2141 15.9037 19.7584C15.625 19.3026 15.2268 18.951 14.7091 18.7036C14.1913 18.4561 13.5914 18.3324 12.9094 18.3324H9.36609V27.3398H11.2375ZM12.9094 22.6629H11.2375V19.8357H12.953C13.4147 19.8439 13.7765 19.9842 14.0385 20.2564C14.3005 20.5286 14.4315 20.8853 14.4315 21.3266C14.4315 21.7555 14.3015 22.0855 14.0416 22.3164C13.7817 22.5474 13.4043 22.6629 12.9094 22.6629ZM22.5598 26.7954C21.9277 27.1542 21.2144 27.3357 20.4201 27.3398H17.6067V18.3324H20.4014C21.1999 18.3324 21.9141 18.5108 22.5442 18.8675C23.1742 19.2243 23.666 19.7316 24.0195 20.3894C24.373 21.0472 24.5498 21.7947 24.5498 22.632V23.0464C24.5498 23.8837 24.3761 24.6281 24.0289 25.2797C23.6816 25.9314 23.1919 26.4366 22.5598 26.7954ZM20.3827 25.8489H19.4781V19.8357H20.4014C21.1375 19.8357 21.6968 20.0718 22.0794 20.544C22.462 21.0163 22.6533 21.7102 22.6533 22.6258V23.1021C22.645 23.9847 22.4475 24.6632 22.0607 25.1374C21.674 25.6117 21.1146 25.8489 20.3827 25.8489ZM27.7811 23.6589V27.3398H25.9097V18.3324H31.8234V19.8357H27.7811V22.1618H31.3743V23.6589H27.7811Z" fill="white"/>
</svg>
