<svg width="28" height="28" viewBox="0 0 28 28" fill="none" xmlns="http://www.w3.org/2000/svg">
<g clip-path="url(#clip0_120_1200)">
<path d="M17.066 17.066L5.6 22.4L10.934 10.934L22.4 5.6L17.066 17.066ZM14 0C12.1615 0 10.341 0.362121 8.64243 1.06569C6.94387 1.76925 5.40053 2.80048 4.1005 4.1005C1.475 6.72601 0 10.287 0 14C0 17.713 1.475 21.274 4.1005 23.8995C5.40053 25.1995 6.94387 26.2307 8.64243 26.9343C10.341 27.6379 12.1615 28 14 28C17.713 28 21.274 26.525 23.8995 23.8995C26.525 21.274 28 17.713 28 14C28 12.1615 27.6379 10.341 26.9343 8.64243C26.2307 6.94387 25.1995 5.40053 23.8995 4.1005C22.5995 2.80048 21.0561 1.76925 19.3576 1.06569C17.659 0.362121 15.8385 0 14 0ZM14 12.46C13.5916 12.46 13.1999 12.6222 12.9111 12.9111C12.6222 13.1999 12.46 13.5916 12.46 14C12.46 14.4084 12.6222 14.8001 12.9111 15.0889C13.1999 15.3778 13.5916 15.54 14 15.54C14.4084 15.54 14.8001 15.3778 15.0889 15.0889C15.3778 14.8001 15.54 14.4084 15.54 14C15.54 13.5916 15.3778 13.1999 15.0889 12.9111C14.8001 12.6222 14.4084 12.46 14 12.46Z" fill="#253F78"/>
</g>
<defs>
<clipPath id="clip0_120_1200">
<rect width="28" height="28" fill="white"/>
</clipPath>
</defs>
</svg>
