<svg width="24" height="24" viewBox="0 0 24 24" fill="none" xmlns="http://www.w3.org/2000/svg">
<path d="M10.2716 19.949C10.2716 21.082 9.35363 22 8.22163 22C7.08763 22 6.16963 21.082 6.16963 19.949H10.2716ZM8.22163 2C9.02463 2 9.68163 2.613 9.75263 3.398L9.75963 3.538V4.236C12.6136 4.913 14.2776 7.416 14.3696 10.449L14.3746 10.718L14.3736 10.8C12.3626 11.905 10.9996 14.043 10.9996 16.5C10.9996 17.357 11.1656 18.174 11.4666 18.923H0.015625V17.897L2.06662 15.847V10.717C2.06662 7.653 3.64963 5.083 6.43363 4.299L6.68263 4.235V3.537C6.68263 2.688 7.36963 2 8.21963 2H8.22163Z" fill="#253F78"/>
<path d="M15.851 18.9L20.418 14.333L20.889 14.805L15.939 19.754L15.681 19.496L15.593 19.584L13 16.992L13.471 16.52L15.851 18.9Z" fill="#253F78" stroke="#253F78"/>
</svg>
