<svg
    xmlns="http://www.w3.org/2000/svg"
    viewBox="0 0 16 24"
    id="vector">
    <path
        id="path"
        d="M 2.11 11.25 C 0.946 11.25 0 12.196 0 13.36 C 0.001 14.121 0.005 16.13 0.004 16.889 C -0.001 21.301 2.925 23.657 3.018 23.794 C 3.15 23.926 3.329 24 3.516 24 L 11.953 24 C 12.139 23.999 12.318 23.925 12.45 23.794 C 12.547 23.652 15.469 21.307 15.469 16.896 L 15.469 13.359 C 15.468 12.899 15.317 12.451 15.038 12.085 C 14.759 11.719 14.368 11.453 13.925 11.33 C 13.482 11.206 13.01 11.23 12.582 11.399 C 12.477 11.017 12.266 10.671 11.974 10.403 C 11.682 10.134 11.32 9.954 10.931 9.881 C 10.541 9.809 10.138 9.847 9.769 9.993 C 9.672 9.639 9.484 9.316 9.224 9.057 C 8.965 8.797 8.642 8.609 8.288 8.512 C 8.779 8.051 9.17 7.495 9.437 6.878 C 9.705 6.261 9.843 5.595 9.844 4.922 C 9.843 3.618 9.323 2.365 8.401 1.443 C 7.479 0.521 6.226 0.001 4.922 0 C 3.618 0.001 2.365 0.521 1.443 1.443 C 0.521 2.365 0.001 3.618 0 4.922 C 0.001 5.853 0.266 6.765 0.764 7.552 C 1.262 8.339 1.972 8.969 2.813 9.369 L 2.813 11.371 C 2.587 11.291 2.349 11.25 2.109 11.25 Z M 8.438 14.766 C 8.439 14.952 8.513 15.13 8.645 15.262 C 8.776 15.393 8.955 15.467 9.141 15.467 C 9.327 15.467 9.506 15.393 9.637 15.262 C 9.769 15.13 9.843 14.952 9.844 14.766 L 9.844 11.953 C 9.854 11.773 9.932 11.604 10.063 11.48 C 10.193 11.356 10.367 11.287 10.547 11.287 C 10.727 11.287 10.901 11.356 11.031 11.48 C 11.162 11.604 11.24 11.773 11.25 11.953 L 11.25 14.766 C 11.25 14.952 11.324 15.131 11.456 15.263 C 11.588 15.395 11.767 15.469 11.953 15.469 C 12.139 15.469 12.318 15.395 12.45 15.263 C 12.582 15.131 12.656 14.952 12.656 14.766 L 12.656 13.359 C 12.666 13.179 12.744 13.01 12.875 12.886 C 13.005 12.762 13.179 12.693 13.359 12.693 C 13.539 12.693 13.713 12.762 13.843 12.886 C 13.974 13.01 14.052 13.179 14.062 13.359 L 14.062 16.896 C 14.062 20.446 11.688 22.554 11.662 22.594 L 3.807 22.594 C 3.759 22.522 1.402 20.527 1.407 16.891 C 1.407 16.127 1.403 14.116 1.402 13.359 C 1.402 13.21 1.448 13.064 1.536 12.943 C 1.623 12.823 1.747 12.733 1.889 12.686 C 2.031 12.64 2.183 12.64 2.325 12.686 C 2.467 12.733 2.591 12.823 2.678 12.943 C 2.766 13.064 2.812 13.21 2.812 13.359 L 2.812 16.921 C 2.813 17.107 2.887 17.286 3.019 17.417 C 3.151 17.548 3.329 17.622 3.515 17.622 C 3.702 17.622 3.88 17.548 4.012 17.417 C 4.144 17.286 4.218 17.107 4.219 16.921 L 4.219 4.921 C 4.229 4.741 4.307 4.572 4.438 4.448 C 4.568 4.324 4.742 4.255 4.922 4.255 C 5.102 4.255 5.276 4.324 5.406 4.448 C 5.537 4.572 5.615 4.741 5.625 4.921 L 5.625 14.766 C 5.625 14.952 5.699 15.131 5.831 15.263 C 5.963 15.395 6.142 15.469 6.328 15.469 C 6.514 15.469 6.693 15.395 6.825 15.263 C 6.957 15.131 7.031 14.952 7.031 14.766 L 7.031 10.546 C 7.038 10.364 7.115 10.192 7.246 10.065 C 7.377 9.939 7.552 9.869 7.734 9.869 C 7.917 9.869 8.092 9.939 8.223 10.065 C 8.354 10.192 8.431 10.364 8.438 10.546 L 8.438 14.766 Z"
        fill="#008577"/>
</svg>
